<svg xmlns="http://www.w3.org/2000/svg" viewBox="0 0 800 326" width="800" height="326" role="img" aria-label="Divisiones sucesivas de 13 entre 2. El cociente final y los restos, en el orden numerado, forman 1101" font-family="Verdana, 'DejaVu Sans', Arial, sans-serif"><title>Divisiones sucesivas de 13 entre 2. El cociente final y los restos, en el orden numerado, forman 1101</title><rect x="0" y="0" width="800" height="326" fill="#ffffff"/><text x="50" y="80" font-size="26" fill="#1d2733" text-anchor="middle" font-weight="bold">13</text><path d="M74,54 V90 H140" fill="none" stroke="#1d2733" stroke-width="2.5"/><text x="114" y="80" font-size="26" fill="#1d2733" text-anchor="middle" font-weight="normal">2</text><text x="50" y="132" font-size="26" fill="#b34700" text-anchor="middle" font-weight="bold">1</text><circle cx="50" cy="123" r="20" fill="none" stroke="#b34700" stroke-width="3"/><circle cx="28" cy="102" r="11" fill="#b34700"/><text x="28" y="107" font-size="13" fill="#ffffff" text-anchor="middle" font-weight="bold">4</text><text x="114" y="132" font-size="26" fill="#1d2733" text-anchor="middle" font-weight="bold">6</text><path d="M138,106 V142 H204" fill="none" stroke="#1d2733" stroke-width="2.5"/><text x="178" y="132" font-size="26" fill="#1d2733" text-anchor="middle" font-weight="normal">2</text><text x="114" y="184" font-size="26" fill="#b34700" text-anchor="middle" font-weight="bold">0</text><circle cx="114" cy="175" r="20" fill="none" stroke="#b34700" stroke-width="3"/><circle cx="92" cy="154" r="11" fill="#b34700"/><text x="92" y="159" font-size="13" fill="#ffffff" text-anchor="middle" font-weight="bold">3</text><text x="178" y="184" font-size="26" fill="#1d2733" text-anchor="middle" font-weight="bold">3</text><path d="M202,158 V194 H268" fill="none" stroke="#1d2733" stroke-width="2.5"/><text x="242" y="184" font-size="26" fill="#1d2733" text-anchor="middle" font-weight="normal">2</text><text x="178" y="236" font-size="26" fill="#b34700" text-anchor="middle" font-weight="bold">1</text><circle cx="178" cy="227" r="20" fill="none" stroke="#b34700" stroke-width="3"/><circle cx="156" cy="206" r="11" fill="#b34700"/><text x="156" y="211" font-size="13" fill="#ffffff" text-anchor="middle" font-weight="bold">2</text><text x="242" y="236" font-size="26" fill="#1f6e43" text-anchor="middle" font-weight="bold">1</text><circle cx="242" cy="227" r="20" fill="none" stroke="#1f6e43" stroke-width="3"/><circle cx="264" cy="206" r="11" fill="#1f6e43"/><text x="264" y="211" font-size="13" fill="#ffffff" text-anchor="middle" font-weight="bold">1</text><text x="276" y="270" font-size="15" fill="#1f6e43" text-anchor="start" font-weight="normal">cociente 1: se para</text><text x="615" y="52" font-size="18" fill="#22425c" text-anchor="middle" font-weight="bold">13 en binario</text><rect x="470" y="90" width="60" height="60" rx="8" fill="#ffffff" stroke="#1f6e43" stroke-width="3"/><text x="500" y="134" font-size="32" fill="#1f6e43" text-anchor="middle" font-weight="bold">1</text><circle cx="500" cy="172" r="11" fill="#1f6e43"/><text x="500" y="177" font-size="13" fill="#ffffff" text-anchor="middle" font-weight="bold">1</text><text x="500" y="204" font-size="13" fill="#4b5866" text-anchor="middle" font-weight="normal">cociente</text><rect x="545" y="90" width="60" height="60" rx="8" fill="#ffffff" stroke="#b34700" stroke-width="3"/><text x="575" y="134" font-size="32" fill="#b34700" text-anchor="middle" font-weight="bold">1</text><circle cx="575" cy="172" r="11" fill="#b34700"/><text x="575" y="177" font-size="13" fill="#ffffff" text-anchor="middle" font-weight="bold">2</text><text x="575" y="204" font-size="13" fill="#4b5866" text-anchor="middle" font-weight="normal">resto</text><rect x="620" y="90" width="60" height="60" rx="8" fill="#ffffff" stroke="#b34700" stroke-width="3"/><text x="650" y="134" font-size="32" fill="#b34700" text-anchor="middle" font-weight="bold">0</text><circle cx="650" cy="172" r="11" fill="#b34700"/><text x="650" y="177" font-size="13" fill="#ffffff" text-anchor="middle" font-weight="bold">3</text><text x="650" y="204" font-size="13" fill="#4b5866" text-anchor="middle" font-weight="normal">resto</text><rect x="695" y="90" width="60" height="60" rx="8" fill="#ffffff" stroke="#b34700" stroke-width="3"/><text x="725" y="134" font-size="32" fill="#b34700" text-anchor="middle" font-weight="bold">1</text><circle cx="725" cy="172" r="11" fill="#b34700"/><text x="725" y="177" font-size="13" fill="#ffffff" text-anchor="middle" font-weight="bold">4</text><text x="725" y="204" font-size="13" fill="#4b5866" text-anchor="middle" font-weight="normal">resto</text><text x="615" y="242" font-size="15" fill="#1d2733" text-anchor="middle" font-weight="normal">Se escribe primero el cociente final</text><text x="615" y="264" font-size="15" fill="#1d2733" text-anchor="middle" font-weight="normal">y después los restos, del último al primero.</text><text x="615" y="304" font-size="24" fill="#22425c" text-anchor="middle" font-weight="bold">13 = 1101</text></svg>